<?xml version="1.0" encoding="UTF-8" standalone="no"?>
<!-- Created with Inkscape (http://www.inkscape.org/) -->

<svg
   width="445.22165mm"
   height="213.26549mm"
   viewBox="0 0 445.22165 213.26549"
   version="1.1"
   id="svg10452"
   xml:space="preserve"
   xmlns:inkscape="http://www.inkscape.org/namespaces/inkscape"
   xmlns:sodipodi="http://sodipodi.sourceforge.net/DTD/sodipodi-0.dtd"
   xmlns="http://www.w3.org/2000/svg"
   xmlns:svg="http://www.w3.org/2000/svg"><sodipodi:namedview
     id="namedview10454"
     pagecolor="#ffffff"
     bordercolor="#111111"
     borderopacity="1"
     inkscape:showpageshadow="0"
     inkscape:pageopacity="0"
     inkscape:pagecheckerboard="1"
     inkscape:deskcolor="#d1d1d1"
     inkscape:document-units="mm"
     showgrid="false" /><defs
     id="defs10449" /><g
     inkscape:label="Ebene 1"
     inkscape:groupmode="layer"
     id="layer1"
     style="fill:#000000;stroke:none"
     transform="translate(136.94474,-1.8929326)"><path
       id="path12347"
       style="display:inline;fill:#000000;stroke:none;stroke-width:0.3;stroke-linecap:round;stroke-miterlimit:5;stroke-opacity:1"
       inkscape:label="Tasse"
       d="m 204.55909,95.192639 39.27616,38.831741 c 1.2921,-0.18807 2.70122,-0.36894 4.30154,-0.53847 6.7484,-0.71488 13.28446,-4.97998 13.28446,-17.10645 0,-9.78191 -3.62821,-11.69782 -12.23853,-12.1021 -7.57309,-0.35558 -9.96341,1.38231 -11.40499,-0.80822 -0.1261,-0.19162 -0.17995,-0.25246 -0.24701,-0.52452 -0.043,-0.1745 -0.0992,-0.50117 -0.0941,-0.67438 0.0454,-1.53025 0.006,-2.772753 -0.26407,-3.042705 -1.73536,-1.735584 -6.63551,-2.394008 -10.45311,-2.983797 -4.99753,-0.772083 -13.7979,-1.017431 -22.1604,-1.051099 z m -31.44924,1.955953 c -2.22183,0.474078 -4.20733,1.103121 -5.18315,2.078943 -0.57235,0.572351 -0.1161,5.494465 0.009,8.323005 0.42361,9.61049 1.68113,18.98298 3.30884,28.24944 2.17917,12.40594 9.46926,24.71148 9.82782,45.21777 0.0171,0.9768 -0.006,2.09146 0.25322,3.06028 0.15816,0.59026 0.81349,1.0405 1.43092,1.37924 6.78289,3.72133 14.53403,3.74809 19.7931,3.74809 5.25909,0 13.01022,-0.0267 19.79311,-3.74809 0.61743,-0.33874 1.27276,-0.78898 1.43092,-1.37924 0.25923,-0.96882 0.23612,-2.08348 0.25322,-3.06028 0.20971,-11.99358 2.78847,-19.49165 5.33042,-28.2586 z m 75.76281,12.489158 c 6.42976,0 7.72098,3.2859 7.72098,6.69158 0,8.07483 -4.91052,11.45697 -9.97303,11.32386 -5.89121,-0.15491 -6.49832,-4.72203 -6.49832,-8.29975 0,-4.36098 1.80838,-9.71569 8.75037,-9.71569 z"
       sodipodi:nodetypes="ccsssssccscccscsscsssccccsssss"
       inkscape:export-filename="closed.svg"
       inkscape:export-xdpi="96"
       inkscape:export-ydpi="96" /><g
       id="g12458"
       style="display:inline;fill:#000000;stroke:none"
       inkscape:label="squiggles"><path
         style="fill:#000000;stroke:none;stroke-width:0.169;stroke-linecap:round;stroke-miterlimit:5;stroke-dasharray:none;stroke-opacity:1"
         d="m 201.58167,30.391897 c -1.72579,0 -2.5886,1.383064 -2.5886,2.234723 0,3.035104 3.56705,5.967308 3.56705,13.478579 0,8.233629 -7.29494,14.654084 -7.29494,23.785196 0,3.147952 0.92562,7.169406 2.13493,10.357341 1.20827,3.185192 2.19912,5.538222 4.15168,5.538222 1.29129,0 2.48589,-1.168627 2.48589,-2.528159 0,-2.481458 -3.55305,-5.521345 -3.55305,-13.814561 0,-8.553108 7.215,-12.715186 7.215,-24.275561 0,-1.968009 -0.81079,-5.827218 -2.01522,-9.108064 -1.13452,-3.090449 -2.29985,-5.667716 -4.10274,-5.667716 z"
         id="path12443"
         sodipodi:nodetypes="sssssssssss" /><path
         style="fill:#000000;stroke:none;stroke-width:0.169;stroke-linecap:round;stroke-miterlimit:5;stroke-dasharray:none;stroke-opacity:1"
         d="m 216.39834,30.391897 c -1.72579,0 -2.5886,1.383064 -2.5886,2.234723 0,3.035104 3.56705,5.967308 3.56705,13.478579 0,8.233629 -7.29494,14.654084 -7.29494,23.785196 0,3.147952 0.92562,7.169406 2.13493,10.357341 1.20827,3.185192 2.19912,5.538222 4.15168,5.538222 1.29129,0 2.48589,-1.168627 2.48589,-2.528159 0,-2.481458 -3.55305,-5.521345 -3.55305,-13.814561 0,-8.553108 7.215,-12.715186 7.215,-24.275561 0,-1.968009 -0.81079,-5.827218 -2.01522,-9.108064 -1.13452,-3.090449 -2.29985,-5.667716 -4.10274,-5.667716 z"
         id="path12441"
         sodipodi:nodetypes="sssssssssss" /><path
         id="path12384"
         style="fill:#000000;stroke:none;stroke-width:0.369;stroke-linecap:round;stroke-miterlimit:5;stroke-dasharray:none;stroke-opacity:1"
         d="m 186.58293,30.391943 c -1.72579,0 -2.58848,1.382831 -2.58848,2.234489 0,3.035101 3.56723,5.967501 3.56723,13.478764 0,8.233621 -7.29516,14.654009 -7.29516,23.785112 0,0.43035 0.0208,0.879264 0.0537,1.337902 l 6.65076,6.57531 c -0.78095,-2.023583 -1.48518,-4.669906 -1.48518,-8.360214 0,-8.553099 7.21506,-12.715157 7.21506,-24.27552 0,-1.968007 -0.81095,-5.827129 -2.01538,-9.107972 -1.13452,-3.090445 -2.29971,-5.667871 -4.10259,-5.667871 z"
         inkscape:label="path" /></g><g
       id="g12470"
       inkscape:label="nope-sign Tasse"
       style="display:inline"><path
         id="path12285"
         style="display:inline;fill:#000000;stroke:none;stroke-width:1.37835;stroke-linecap:round;stroke-miterlimit:5;stroke-dasharray:none;stroke-opacity:1"
         d="M 201.67277,1.8929326 A 106.60384,106.60384 0 0 0 95.069157,108.49655 106.60384,106.60384 0 0 0 201.67277,215.10068 106.60384,106.60384 0 0 0 308.27691,108.49655 106.60384,106.60384 0 0 0 201.67277,1.8929326 Z m 0,22.1785854 a 84.424969,84.424969 0 0 1 84.42504,84.425032 84.424969,84.424969 0 0 1 -84.42504,84.42504 84.424969,84.424969 0 0 1 -84.42503,-84.42504 84.424969,84.424969 0 0 1 84.42503,-84.425032 z" /><rect
         style="display:inline;fill:#000000;stroke:none;stroke-width:0.990745;stroke-linecap:round;stroke-miterlimit:5;stroke-dasharray:none;stroke-opacity:1"
         id="rect12365"
         width="15.710558"
         height="174.34505"
         x="56.524113"
         y="132.58942"
         transform="matrix(0.7111192,-0.70307147,0.7111192,0.70307147,0,0)"
         inkscape:label="small_Rec" /></g><path
       id="path12478"
       style="display:inline;fill:#000000;stroke:none;stroke-width:0.3;stroke-linecap:round;stroke-miterlimit:5;stroke-opacity:1"
       inkscape:label="Flasche"
       d="m 51.859265,29.400401 c -1.729695,-0.04217 -5.802984,0.163306 -7.043497,0.759644 -0.588625,0.282963 -0.565126,0.83315 -0.57981,1.433504 -0.558188,0.07787 -0.679782,0.669302 -0.675928,1.289327 0.0042,0.670421 0.176838,1.366079 0.706934,1.254704 -0.450152,0.264795 -0.509013,0.499332 -0.509013,1.298112 0,0.517254 0.101315,0.935004 0.509013,1.018026 -1.025711,0.232753 -1.011308,1.076104 -1.011308,1.768884 0,0.715234 -0.08113,1.77784 1.091923,1.995227 0.198956,17.28416 -4.386028,23.189933 -8.004679,37.661138 L 71.602246,112.73989 C 71.129648,72.119115 59.050723,68.037512 59.370952,40.217829 c 1.173055,-0.217387 1.091923,-1.279993 1.091923,-1.995227 0,-0.69278 0.0144,-1.536131 -1.011308,-1.768884 0.407697,-0.08302 0.508496,-0.500772 0.508496,-1.018026 0,-0.79878 -0.05834,-1.033317 -0.508496,-1.298112 0.530095,0.111375 0.702733,-0.584283 0.706933,-1.254704 0.0039,-0.620025 -0.117739,-1.211457 -0.675927,-1.289327 -0.01468,-0.600354 0.0088,-1.150541 -0.57981,-1.433504 -1.240514,-0.596338 -5.313802,-0.801813 -7.043498,-0.759644 z M 32.266663,106.89787 c -0.109526,2.61377 -0.173116,5.36092 -0.173116,8.28735 0,26.48791 -0.08785,45.65126 -0.08785,58.14632 0,11.08718 -0.113655,12.48866 4.664569,13.76898 3.924348,1.05153 10.14369,1.22734 15.188999,1.22734 5.045309,0 11.350035,-0.15173 15.124659,-1.16314 4.778224,-1.28032 4.728393,-2.36009 4.728393,-13.83332 0,-6.91307 -0.02459,-16.37557 -0.04858,-27.48204 z"
       transform="translate(-81.529289)"
       sodipodi:nodetypes="cscccscsccccscscccsccsssssscc" /><g
       id="g12476"
       inkscape:label="nope-sign Flasch"
       transform="translate(-232.0139,0.05774124)"
       style="display:inline;fill:#000000;stroke:none"><path
         id="path12472"
         style="display:inline;fill:#000000;stroke:none;stroke-width:1.37835;stroke-linecap:round;stroke-miterlimit:5;stroke-dasharray:none;stroke-opacity:1"
         d="M 201.67277,1.8929326 A 106.60384,106.60384 0 0 0 95.069157,108.49655 106.60384,106.60384 0 0 0 201.67277,215.10068 106.60384,106.60384 0 0 0 308.27691,108.49655 106.60384,106.60384 0 0 0 201.67277,1.8929326 Z m 0,22.1785854 a 84.424969,84.424969 0 0 1 84.42504,84.425032 84.424969,84.424969 0 0 1 -84.42504,84.42504 84.424969,84.424969 0 0 1 -84.42503,-84.42504 84.424969,84.424969 0 0 1 84.42503,-84.425032 z" /><rect
         style="display:inline;fill:#000000;stroke:none;stroke-width:0.990745;stroke-linecap:round;stroke-miterlimit:5;stroke-dasharray:none;stroke-opacity:1"
         id="rect12474"
         width="15.710558"
         height="174.34505"
         x="56.524113"
         y="132.58942"
         transform="matrix(0.7111192,-0.70307147,0.7111192,0.70307147,0,0)"
         inkscape:label="small_Rec" /></g></g></svg>
