<?xml version="1.0" encoding="UTF-8" standalone="no"?>
<!-- Created with Inkscape (http://www.inkscape.org/) -->

<svg
   version="1.1"
   id="svg1"
   width="2240"
   height="1172.2667"
   viewBox="0 0 2240 1172.2667"
   sodipodi:docname="ascii-closed2.svg"
   inkscape:version="1.3.2 (091e20e, 2023-11-25)"
   xmlns:inkscape="http://www.inkscape.org/namespaces/inkscape"
   xmlns:sodipodi="http://sodipodi.sourceforge.net/DTD/sodipodi-0.dtd"
   xmlns="http://www.w3.org/2000/svg"
   xmlns:svg="http://www.w3.org/2000/svg">
  <defs
     id="defs1" />
  <sodipodi:namedview
     id="namedview1"
     pagecolor="#ffffff"
     bordercolor="#666666"
     borderopacity="1.0"
     inkscape:showpageshadow="2"
     inkscape:pageopacity="0.0"
     inkscape:pagecheckerboard="0"
     inkscape:deskcolor="#d1d1d1"
     inkscape:zoom="0.20131937"
     inkscape:cx="1117.6272"
     inkscape:cy="583.64975"
     inkscape:window-width="1512"
     inkscape:window-height="916"
     inkscape:window-x="0"
     inkscape:window-y="38"
     inkscape:window-maximized="0"
     inkscape:current-layer="g1" />
  <g
     inkscape:groupmode="layer"
     inkscape:label="Image"
     id="g1">
    <path
       style="fill:#020202;stroke:none"
       d="m 1612.8,77.252738 c -93.607,12.289324 -180.8375,40.492582 -258.1333,96.342322 -51.0352,36.87513 -93.7073,83.97286 -127.6716,136.80496 -114.4541,178.03523 -103.0503,416.44285 25.1481,584.53336 33.8832,44.42676 75.2392,83.14082 121.7235,114.13332 44.3255,29.5533 92.6911,53.1855 144,67.8107 65.5299,18.6789 136.4161,22.8741 203.7333,14.0223 73.8566,-9.7118 146.9134,-35.9799 209.0667,-77.2116 49.5674,-32.88245 92.8498,-73.27126 128.5596,-120.88806 110.4445,-147.27129 133.6339,-349.80659 56.7111,-517.33336 -34.1391,-74.34987 -87.4245,-140.74147 -151.1374,-191.78685 -49.1405,-39.37025 -107.2555,-68.24936 -167.4667,-86.314396 -46.6519,-13.99694 -94.3006,-20.56543 -142.9333,-20.56543 -13.6414,0 -28.0686,-1.323698 -41.6,0.452734 M 518.4,81.51934 c -28.6625,3.763412 -57.01582,5.510612 -85.33333,12.223894 -81.66195,19.359636 -157.664,58.011066 -220.8,113.494666 -49.59271,43.58177 -90.742,96.37286 -120.269966,155.42878 -32.177893,64.3558 -50.403752,136.04116 -53.554728,208.00001 -1.720557,39.29232 3.737215,78.93217 11.688066,117.33334 40.115694,193.75151 193.545998,350.21047 386.136628,395.85677 58.11614,13.7742 123.33353,15.8765 182.4,8.1095 C 867.70632,1059.2189 1061.0978,834.49698 1058.1292,583.4667 1056.6607,459.28642 1007.3785,333.17521 922.57122,242.13335 854.01647,168.53868 760.43184,115.35424 662.4,93.172791 617.1278,82.929171 564.80632,75.426045 518.4,81.51934 m 1126.4,97.98523 c 35.2491,-4.15905 75.907,4.76744 109.8667,13.68554 166.1882,43.64252 289.9853,191.53126 301.7712,363.60992 5.1931,75.82057 -10.0624,156.26355 -47.9046,222.93334 -8.695,15.31869 -17.1345,30.57045 -27.6099,44.8 -2.4027,3.26381 -7.3298,12.57943 -11.9522,12.57943 -5.1146,0 -11.522,-9.26354 -14.8379,-12.57943 l -38.4,-38.4 c -50.6394,-50.63952 -99.8198,-103.52136 -152.3522,-152.18685 -93.9272,-87.01323 -182.7048,-180.7368 -273.2478,-271.27984 l -67.2,-67.2 c -4.9267,-4.92669 -22.1794,-17.18516 -22.1794,-24.43789 0,-4.42878 8.4082,-9.09675 11.5128,-11.42878 12.8175,-9.62793 26.6169,-17.78834 40.5333,-25.70039 43.5855,-24.78021 90.3279,-40.95332 139.7333,-49.27982 17.4153,-2.93503 34.844,-3.0595 52.2667,-5.11523 m -778.66667,661.0288 h -1.06666 c -48.19812,-39.25026 -90.48034,-87.28034 -134.4,-131.2 C 656.87539,635.54209 582.58151,562.31487 508.8,488.53336 464.04388,443.77724 420.14512,397.9174 374.4,354.17534 356.40114,336.9646 338.68958,319.4896 321.06667,301.86668 c -9.22325,-9.22324 -20.21615,-18.12858 -27.73334,-28.8 54.19037,-40.164 115.7682,-70.5545 182.4,-83.40821 98.225,-18.94824 207.09825,3.53236 291.2,56.79831 162.5767,102.96824 229.58718,313.44741 158.29297,491.67659 -13.92331,34.80703 -32.95957,75.07539 -59.09297,102.4 m -214.4,-230.40001 c 0,-32.17975 0.11888,-66.41608 -5.82389,-98.13334 C 633.09414,443.60354 603.761,378.36278 594.586,309.33335 c -3.24414,-24.40788 -1.51933,-50.05554 -1.51933,-74.66667 0,-6.93718 2.15019,-21.24883 -6.44688,-23.92344 -14.82168,-4.61107 -38.01289,-3.23027 -53.28646,-1.22389 -5.09059,0.66868 -12.65117,-0.24564 -16.29052,4.13743 -13.05046,15.71725 1.33639,41.67689 0.19505,58.34323 -2.73793,39.98054 -12.04479,78.78614 -22.7572,117.33334 -3.45579,12.43529 -7.04134,24.85508 -10.33743,37.33334 -1.1277,4.26927 -4.17259,10.51152 -3.17946,14.93333 1.20872,5.38171 8.11152,10.14193 11.83623,13.86667 l 30.93333,30.93333 c 27.00091,27.00092 54.53542,53.65255 82.13334,80.042 14.99563,14.339 28.86849,31.71745 45.86666,43.69134 M 1654.4,211.86505 c -8.2508,1.20111 -11.4359,7.68848 -10.3465,15.33496 2.3387,16.41491 10.7809,31.07351 12.7844,48 4.1432,35.00313 -14.7792,61.95834 -25.1095,93.86667 -6.6685,20.5976 -7.2358,39.84382 -1.9968,60.80001 3.1822,12.72877 10.739,47.93288 28.9351,45.6222 9.4885,-1.20495 9.554,-9.35456 8.0543,-16.8222 -3.2259,-16.06315 -11.6105,-30.44206 -13.2065,-46.93334 -3.0135,-31.13652 14.0247,-57.31536 24.2954,-85.33333 8.1514,-22.23659 10.2242,-46.30411 4.1589,-69.33334 -3.0846,-11.71152 -10.5102,-47.68496 -27.5688,-45.20163 m 67.2049,1.10202 c -7.8496,2.40547 -7.5776,9.77832 -5.8946,16.36627 4.0775,15.96101 12.5765,30.08347 13.3144,46.93334 1.5995,36.52487 -18.4898,62.21263 -27.9622,96 -5.187,18.50124 -3.4361,39.03295 0.4956,57.60001 2.5086,11.84707 10.4567,50.6015 28.5752,45.16628 22.4771,-6.74271 -1.2274,-38.76661 -4.251,-52.63295 -8.1379,-37.32136 14.1952,-66.49772 25.2025,-100.26667 5.0284,-15.4263 5.176,-35.1625 3.2773,-51.2 -1.9008,-16.05593 -4.682,-32.98093 -13.3654,-46.93334 -3.9957,-6.42025 -10.9981,-13.60514 -19.3918,-11.03294 m -133.3382,227.56628 c -6.2943,-25.54635 -6.9754,-49.40976 1.4453,-74.66667 4.9008,-14.69941 12.8996,-28.17949 18.3678,-42.66666 10.2047,-27.03562 5.831,-61.21947 -4.6666,-87.46668 -3.5094,-8.77434 -16.4847,-34.55879 -29.0033,-18.75312 -4.1945,5.29596 -0.7807,14.21523 1.1408,19.81979 5.2431,15.29278 12.5218,30.42676 12.7118,46.93334 0.5464,47.48652 -57.8995,98.13972 -18.1555,140.8 5.3787,5.77331 10.2495,13.77976 18.1597,16 M 1340.8,329.60002 1912.5333,898.13338 v 1.06666 c -46.376,35.74454 -98.9479,64.1448 -155.7333,79.05678 -150.9667,39.64418 -316.1517,-15.70274 -414.4428,-136.65678 -92.3408,-113.63171 -118.9556,-278.34747 -60.5235,-413.86669 10.3888,-24.09433 22.8623,-47.16185 36.9071,-69.33333 6.1924,-9.77552 12.7822,-21.7002 22.0592,-28.8 m -1105.06667,3.2 c 82.84577,82.84486 166.7668,164.63347 249.6,247.46667 53.51075,53.51075 107.57956,106.5129 161.06667,160.00001 39.65957,39.65964 78.78438,79.78725 118.4,119.46668 9.56419,9.57955 18.72018,19.71894 27.67904,29.86666 2.86211,3.24193 9.1554,9.04571 8.5638,13.85105 -0.72468,5.88626 -11.55964,11.20774 -15.97617,14.24609 -17.1961,11.83001 -34.64968,22.55892 -53.33334,31.89961 C 652.5334,989.19171 557.31523,1002.8183 470.4,984.30871 313.20521,950.83221 189.2221,829.02087 153.22798,672.00003 144.30864,633.09033 147.2,593.08662 147.2,553.60003 c 0,-57.55437 22.69577,-115.32872 49.80412,-165.33334 10.06823,-18.57208 21.64215,-42.39747 38.72921,-55.46667 M 1673.6,524.80003 c 12.4732,17.70664 31.6132,32.67975 46.9333,48 29.3349,29.3349 58.1873,59.29421 88.5334,87.56211 11.5274,10.73802 22.3062,22.23959 34.1333,32.66667 4.2824,3.77552 9.2792,9.80508 14.9333,11.39427 8.2203,2.31042 22.818,-2.71699 30.9334,-4.8543 14.5812,-3.84036 30.6718,-9.04518 41.4148,-20.19837 19.8478,-20.60547 24.6836,-69.26068 9.6583,-93.76954 -7.4294,-12.11875 -20.6752,-15.6192 -34.0065,-17.12102 -21.7617,-2.45157 -44.5704,0.79921 -66.1333,-2.71029 -15.273,-2.48581 -8.2198,-21.14772 -23.4667,-26.00573 -44.2285,-14.09225 -96.9286,-14.9638 -142.9333,-14.9638 m -149.3333,7.20742 c -9.5597,-0.90345 -35.6631,5.1207 -40.1943,14.14238 -4.1007,8.16432 -1.3527,22.16947 -0.5202,30.91686 2.0923,21.98379 3.5457,44.10033 5.5943,66.13334 6.8499,73.67331 36.2505,141.3739 50.6411,213.33334 4.4529,22.26628 6.0494,44.74044 8.7078,67.20001 1.0887,9.19687 0.038,20.73633 5.6058,28.69961 9.2978,13.29818 41.5078,17.59036 56.5655,19.12018 35.9866,3.65599 76.4674,3.65951 112,-3.44609 11.5669,-2.31315 30.7725,-5.74362 37.4847,-16.65684 5.3291,-8.66432 4.5506,-24.21348 5.2766,-34.11686 1.4607,-19.92357 3.4389,-40.00827 6.7465,-59.73334 2.6728,-15.93958 6.7392,-31.39889 11.1424,-46.93333 1.5019,-5.29857 5.8413,-13.84707 3.3046,-19.2 -2.8942,-6.10697 -10.1697,-11.28152 -14.8882,-16.00001 l -32,-32 L 1632,635.73336 c -25.7814,-25.78131 -52.1069,-51.04017 -77.8667,-76.8 -6.7682,-6.76829 -20.0272,-25.99603 -29.8666,-26.92591 M 459.73333,573.86669 c -3.40553,11.52123 -1.06666,26.40215 -1.06666,38.40001 0,23.17526 -1.05837,46.12422 -0.042,69.33333 2.61755,59.7711 1.10866,120.47175 1.10866,180.26668 0,24.29844 -0.34824,49.42617 1.95225,73.6 0.86797,9.12064 -1.71442,19.4694 3.38685,27.72839 7.5706,12.2569 28.17122,9.67682 40.52757,10.85267 30.24723,2.87845 62.5209,1.98789 92.8,-0.0856 15.11647,-1.03516 30.80807,0.24472 43.69056,-9.46993 9.07904,-6.84648 6.65417,-15.99576 7.814,-25.82552 2.89609,-24.54492 1.82877,-51.00677 1.82877,-75.73333 v -68.26667 c 0,-8.73816 2.39232,-21.63243 -0.64362,-29.86667 -2.42695,-6.58243 -10.50618,-12.21647 -15.35638,-17.06667 L 598.4,710.40003 509.86667,621.8667 C 494.11725,606.11728 477.90632,586.66806 459.73333,573.86669 M 1878.4,592.30869 c 11.0236,-1.43255 26.1904,-0.74219 35.1836,6.50781 28.6789,23.11999 -0.5439,71.83106 -30.9169,75.13171 -35.3663,3.84316 -52.5043,-36.76172 -34.0181,-64.88151 6.7991,-10.34213 17.8165,-15.20704 29.7514,-16.75801 z"
       id="path1" />
  </g>
</svg>
