<?xml version="1.0" encoding="UTF-8" standalone="no"?>
<!-- Created with Inkscape (http://www.inkscape.org/) -->

<svg
   version="1.1"
   id="svg1"
   width="2133.3333"
   height="1512.5333"
   viewBox="0 0 2133.3333 1512.5333"
   sodipodi:docname="ascii-opened2.svg"
   inkscape:version="1.3.2 (091e20e, 2023-11-25)"
   xmlns:inkscape="http://www.inkscape.org/namespaces/inkscape"
   xmlns:sodipodi="http://sodipodi.sourceforge.net/DTD/sodipodi-0.dtd"
   xmlns="http://www.w3.org/2000/svg"
   xmlns:svg="http://www.w3.org/2000/svg">
  <defs
     id="defs1" />
  <sodipodi:namedview
     id="namedview1"
     pagecolor="#ffffff"
     bordercolor="#666666"
     borderopacity="1.0"
     inkscape:showpageshadow="2"
     inkscape:pageopacity="0.0"
     inkscape:pagecheckerboard="0"
     inkscape:deskcolor="#d1d1d1"
     showgrid="false"
     inkscape:zoom="0.40781252"
     inkscape:cx="1066.6666"
     inkscape:cy="756.47507"
     inkscape:window-width="1512"
     inkscape:window-height="916"
     inkscape:window-x="0"
     inkscape:window-y="38"
     inkscape:window-maximized="0"
     inkscape:current-layer="g1" />
  <g
     inkscape:groupmode="layer"
     inkscape:label="Image"
     id="g1">
    <path
       style="fill:#010101;stroke:none"
       d="m 322.13332,177.52018 c -7.33642,0.99857 -15.46429,1.84701 -20.9819,7.36458 -12.30937,12.30938 -9.38913,47.56003 -7.63291,63.64857 0.69837,6.39766 5.56514,10.77526 6.11439,17.06745 2.54163,29.11732 -3.18887,59.9026 -7.99177,88.53255 -10.32164,61.52708 -28.34669,121.47487 -45.55143,181.33333 -12.83237,44.64623 -28.87579,89.36823 -35.66666,135.46667 -8.20158,55.67487 -6.39821,111.39075 -7.77202,167.46667 -2.94012,120.00872 0.0156,240.3747 0.0156,360.5333 0,54.4391 1.06667,108.7369 1.06667,163.2 v 40.5334 c 0,6.6579 -1.22155,13.7772 3.35802,19.2 19.29775,22.8507 51.51906,20.6812 78.77531,21.3489 42.30455,1.0365 84.62877,1.0365 126.93332,0 23.79447,-0.5829 47.8916,0.9753 71.46667,-2.9539 38.01442,-6.3358 35.2,-45.8956 35.2,-75.995 0,-78.1595 1.06666,-156.4282 1.06666,-234.6667 0,-87.8112 -1.06666,-175.7476 -1.06666,-263.46667 0,-33.7957 -0.66149,-67.62031 -1.06257,-101.33333 -0.24424,-20.5308 1.06462,-41.4653 -1.37529,-61.86667 C 504.97687,602.16113 466.67264,504.67708 442.80493,406.4 432.70168,364.79909 420.20246,319.28828 424.7144,276.26667 c 1.16156,-11.07553 7.06104,-20.89844 8.17035,-32 1.15719,-11.58086 -2.80641,-23.6698 -3.90368,-35.2 -0.78714,-8.27136 1.11358,-19.49519 -5.13994,-26.2198 -5.31849,-5.71914 -16.77438,-4.23802 -23.84115,-5.16627 -23.7442,-3.11875 -54.12437,-3.39219 -77.86666,-0.16042 m 1151.99998,12.81563 c -14.4826,2.34948 -15.4504,14.96093 -13.005,27.26419 5.1043,25.68047 19.7973,47.7776 20.456,74.66667 0.503,20.53502 2.0267,42.88984 -3.0733,62.93333 -6.9936,27.48594 -24.8424,52.37695 -34.8575,78.93333 -13.2632,35.16914 -14.8782,78.49922 -7.4939,115.2 4.2459,21.10313 12.7496,43.60143 24.1762,61.86667 4.7429,7.58157 12.2123,17.17877 22.3308,15.63294 9.8734,-1.5084 19.7543,-11.81231 19.0025,-22.03294 -1.0318,-14.02754 -8.8477,-27.53802 -13.6124,-40.53334 -5.9195,-16.14492 -9.1034,-32.10227 -11.3374,-49.06666 -6.4067,-48.65306 23.3887,-89.20821 39.6271,-132.26667 14.5878,-38.68151 16.444,-80.57122 6.4535,-120.53333 -5.8615,-23.44636 -16.2447,-77.32409 -48.6666,-72.06419 m 234.6666,0 c -13.535,2.17487 -15.8444,12.05768 -13.5885,24.06419 2.804,14.92383 10.6066,28.24088 14.9523,42.66667 3.7714,12.51901 3.975,24.57382 5.6502,37.33333 2.5277,19.25338 2.0113,44.29062 -3.516,62.93333 -9.558,32.23737 -29.755,60.58333 -39.7374,92.8 -9.9276,32.03958 -7.7918,66.82598 -0.6412,99.2 4.6304,20.96341 11.3805,42.48841 22.8164,60.8 4.8383,7.74714 12.3801,17.10632 22.5976,15.77201 14.0687,-1.83724 19.9769,-12.13868 17.6386,-25.37201 -5.0257,-28.44323 -19.995,-52.75742 -22.7908,-82.13333 -5.2795,-55.47064 24.8006,-96.07266 42.1184,-146.13334 11.3159,-32.71067 12.7882,-76.66653 3.2568,-109.86666 -6.515,-22.69297 -16.7297,-77.21042 -48.7564,-72.06419 m -121.5958,1.29388 c -11.3831,3.61328 -11.5887,17.52669 -9.3523,27.03698 6.5371,27.8 19.7549,50.66432 21.0395,80 0.8737,19.95013 1.1171,42.7177 -5.0207,61.86666 -10.1592,31.69544 -30.1263,59.65078 -39.2813,91.73333 -8.5394,29.92487 -7.1469,67.79955 -1.0437,98.13334 4.1823,20.78659 12.6056,42.58535 23.4709,60.8 5.8269,9.76836 14.0913,17.44108 26.1834,14.09544 13.6612,-3.77975 17.108,-13.91048 14.4536,-26.89544 -3.2295,-15.7974 -11.931,-29.59597 -16.8585,-44.8 -4.1112,-12.68535 -4.699,-25.28399 -5.9473,-38.4 -5.2239,-54.88828 26.561,-97.26172 42.8378,-147.2 10.7259,-32.90781 9.7892,-69.93763 2.8445,-103.46667 -4.0155,-19.38685 -11.0423,-37.85104 -20.0034,-55.46666 -6.4623,-12.70365 -18.0113,-22.29714 -33.3225,-17.43698 M 1506.1333,706.586 c -15.6795,2.05872 -32.1906,1.0304 -48,1.72266 -32.0073,1.40149 -64.4176,4.46569 -96,10.172 -15.9858,2.88828 -42.3982,6.58236 -52.6897,20.91608 -5.0465,7.02865 0.014,25.55508 0.3811,33.93659 1.4045,32.07324 3.9113,64.05071 7.3316,96 6.4232,59.99889 15.6222,119.69687 30.9869,178.13337 18.6504,70.933 44.1008,140.1057 57.9333,212.2666 6.8257,35.6073 7.7508,71.8041 11.3432,107.7334 1.5908,15.9097 2.2205,38.102 15.2987,49.4074 15.2529,13.1853 42.6452,16.6551 61.6815,21.3909 37.9714,9.4465 78.5719,6.6743 117.3334,4.9769 32.6578,-1.4299 65.691,-1.1342 98.1333,-5.832 17.7017,-2.5633 43.2993,-8.196 54.8987,-23.0255 7.004,-8.9546 7.6038,-23.2192 9.1013,-34.1177 3.2189,-23.4258 4.9647,-46.9481 7.7712,-70.4 8.2176,-68.6689 26.0367,-132.324 45.8608,-198.4 5.5489,-18.4952 11.0663,-37.0086 16.7417,-55.4667 3.0691,-9.9816 5.3137,-21.9684 11.0806,-30.8181 3.5182,-5.3989 10.9075,-6.004 16.679,-7.4469 14.8515,-3.7129 29.788,-7.1583 44.8,-10.1613 49.4042,-9.88282 126.2608,-17.08334 148.8774,-69.97371 7.1014,-16.60709 7.1442,-33.69811 9.442,-51.19999 1.7233,-13.1267 1.6886,-28.40541 0.4328,-41.6 -1.083,-11.38002 -1.7772,-23.56778 -6.5531,-34.13334 -11.5065,-25.45534 -38.1983,-32.44863 -63.6657,-33.08229 -19.4918,-0.48503 -39.1649,-2.11641 -58.6667,-2.11771 -16.7251,-0.001 -36.0893,1.47722 -52.2667,-3.38607 -14.6591,-4.40683 -9.2105,-16.03385 -13.312,-26.48059 -3.7154,-9.46355 -12.8569,-13.54499 -21.888,-16.69877 -65.2914,-22.80058 -141.0406,-18.76452 -209.0666,-21.74323 -30.8728,-1.35182 -61.846,-1.02467 -92.8,-1.02467 -16.7517,0 -34.5883,-1.72845 -51.2,0.45267 m 455.4666,111.85267 c 19.9076,-2.44492 48.3224,-1.25814 63.8149,12.99017 10.8264,9.95696 11.9185,25.24244 11.9185,38.97116 0,45.10937 -31.2226,74.5524 -74.6667,79.69544 -57.7202,6.83307 -71.9108,-69.21146 -45.7547,-108.49544 10.084,-15.14512 27.4465,-21.04382 44.688,-23.16133 z"
       id="path1" />
  </g>
</svg>
