<?xml version="1.0" encoding="UTF-8" standalone="no"?>
<!-- Created with Inkscape (http://www.inkscape.org/) -->

<svg
   width="445.22165mm"
   height="213.26549mm"
   viewBox="0 0 445.22165 213.26549"
   version="1.1"
   id="svg10452"
   xml:space="preserve"
   xmlns:inkscape="http://www.inkscape.org/namespaces/inkscape"
   xmlns:sodipodi="http://sodipodi.sourceforge.net/DTD/sodipodi-0.dtd"
   xmlns="http://www.w3.org/2000/svg"
   xmlns:svg="http://www.w3.org/2000/svg"><sodipodi:namedview
     id="namedview10454"
     pagecolor="#ffffff"
     bordercolor="#111111"
     borderopacity="1"
     inkscape:showpageshadow="0"
     inkscape:pageopacity="0"
     inkscape:pagecheckerboard="1"
     inkscape:deskcolor="#d1d1d1"
     inkscape:document-units="mm"
     showgrid="false" /><defs
     id="defs10449" /><g
     inkscape:label="Ebene 1"
     inkscape:groupmode="layer"
     id="layer1"
     style="fill:#000000;stroke:none"
     transform="translate(136.94474,-1.8929326)"><path
       id="path11820"
       style="display:inline;fill:#000000;stroke:none;stroke-width:0.3;stroke-linecap:round;stroke-miterlimit:5;stroke-opacity:1"
       d="m 202.54939,95.17817 c -8.92404,0 -18.77222,0.231716 -24.16958,1.065568 -3.8176,0.58979 -8.71763,1.248315 -10.45311,2.983797 -0.57235,0.572352 -0.11589,5.494465 0.009,8.323005 0.42361,9.6105 1.68113,18.98297 3.30884,28.24944 2.17917,12.40595 9.46926,24.71146 9.82782,45.21777 0.0171,0.9768 -0.006,2.09146 0.25322,3.06028 0.15816,0.59026 0.81349,1.0405 1.43092,1.37924 6.7829,3.72133 14.53402,3.74809 19.7931,3.74809 5.25909,0 13.01021,-0.0267 19.79311,-3.74809 0.61743,-0.33874 1.27276,-0.78898 1.43092,-1.37924 0.25923,-0.96882 0.23612,-2.08348 0.25322,-3.06028 0.32883,-18.806 6.48536,-30.30833 9.18501,-42.0779 0.12718,-0.55447 0.24243,-1.0677 0.48267,-1.56887 0.18477,-0.38544 0.56472,-0.68435 1.07701,-0.972 2.03817,-1.14443 5.97332,-2.13 13.36546,-2.91307 6.7484,-0.71488 13.28446,-4.97997 13.28446,-17.10645 0,-9.78192 -3.6282,-11.69782 -12.23853,-12.1021 -7.5731,-0.35558 -9.96371,1.38219 -11.40529,-0.80835 -0.1261,-0.19162 -0.1797,-0.25225 -0.24676,-0.52431 -0.043,-0.1745 -0.0992,-0.50125 -0.0941,-0.67446 0.0454,-1.53025 0.006,-2.772753 -0.26393,-3.042705 -1.73537,-1.735586 -6.63551,-2.394007 -10.45311,-2.983797 -5.39736,-0.833852 -15.24606,-1.065568 -24.1701,-1.065568 z m 46.32327,14.45958 c 6.42976,0 7.72098,3.28589 7.72098,6.69158 0,8.07483 -4.91051,11.45697 -9.97303,11.32386 -5.89121,-0.15491 -6.49832,-4.72202 -6.49832,-8.29975 0,-4.36098 1.80837,-9.71569 8.75037,-9.71569 z"
       sodipodi:nodetypes="sssssscsssccssssssssssssssssss"
       inkscape:label="whole Tasse"
       inkscape:export-filename=".\open.svg"
       inkscape:export-xdpi="96"
       inkscape:export-ydpi="96" /><path
       style="display:inline;fill:#000000;stroke:none;stroke-width:0.3;stroke-linecap:round;stroke-miterlimit:5;stroke-opacity:1"
       d="m 36.670265,187.10052 c -4.729205,-1.25364 -4.66435,-1.17215 -4.66435,-13.76908 0,-12.49507 0.08772,-31.65812 0.08772,-58.14606 0,-42.790818 12.580302,-46.593303 12.25369,-74.96758 -1.173057,-0.217387 -1.091747,-1.280056 -1.091747,-1.995291 0,-0.692781 -0.01439,-1.535928 1.01132,-1.768681 -0.407698,-0.08302 -0.508716,-0.500652 -0.508716,-1.017906 0,-0.798781 0.05856,-1.033591 0.508716,-1.298386 -0.530096,0.111375 -0.702592,-0.584142 -0.706792,-1.254563 -0.0039,-0.620026 0.117673,-1.211601 0.675862,-1.289471 0.01468,-0.600355 -0.009,-1.15072 0.579605,-1.433683 1.240515,-0.596339 5.313401,-0.75942 7.043612,-0.75942 1.730211,0 5.803097,0.163081 7.043612,0.75942 0.588625,0.282963 0.564921,0.833328 0.579605,1.433683 0.558189,0.07787 0.679716,0.669445 0.675862,1.289471 -0.0042,0.670421 -0.176696,1.365938 -0.706792,1.254563 0.450152,0.264795 0.508716,0.499605 0.508716,1.298386 0,0.517254 -0.101018,0.934884 -0.508716,1.017906 1.025712,0.232753 1.01132,1.0759 1.01132,1.768681 0,0.715235 0.08131,1.777904 -1.091747,1.995291 -0.326612,28.374277 12.25369,32.176762 12.25369,74.96758 0,26.48794 0.08772,45.65099 0.08772,58.14606 0,12.46044 -1.18e-4,12.53244 -4.792996,13.76908 -3.843115,0.99158 -10.01491,1.22734 -15.060195,1.22734 -5.045285,0 -11.352529,-0.21035 -15.188999,-1.22734 z"
       id="path12847"
       sodipodi:nodetypes="ssscscscscssscccscscsssss"
       transform="translate(-81.529288)"
       inkscape:label="whole Flasche" /><path
       style="display:inline;fill:#000000;stroke:none;stroke-width:0.169;stroke-linecap:round;stroke-miterlimit:5;stroke-dasharray:none;stroke-opacity:1"
       d="m 186.58302,30.391897 c -1.72579,0 -2.5886,1.383064 -2.5886,2.234723 0,3.035104 3.56705,5.967308 3.56705,13.478579 0,8.233629 -7.29494,14.654084 -7.29494,23.785196 0,3.147952 0.92562,7.169406 2.13493,10.357341 1.20827,3.185192 2.19912,5.538222 4.15168,5.538222 1.29129,0 2.48589,-1.168627 2.48589,-2.528159 0,-2.481458 -3.55305,-5.521345 -3.55305,-13.814561 0,-8.553108 7.215,-12.715186 7.215,-24.275561 0,-1.968009 -0.81079,-5.827218 -2.01522,-9.108064 -1.13452,-3.090449 -2.29985,-5.667716 -4.10274,-5.667716 z"
       id="path12448"
       sodipodi:nodetypes="sssssssssss"
       inkscape:label="squiggle whole" /><g
       id="g12458"
       style="display:inline;fill:#000000;stroke:none"
       inkscape:label="squiggles"><path
         style="fill:#000000;stroke:none;stroke-width:0.169;stroke-linecap:round;stroke-miterlimit:5;stroke-dasharray:none;stroke-opacity:1"
         d="m 201.58167,30.391897 c -1.72579,0 -2.5886,1.383064 -2.5886,2.234723 0,3.035104 3.56705,5.967308 3.56705,13.478579 0,8.233629 -7.29494,14.654084 -7.29494,23.785196 0,3.147952 0.92562,7.169406 2.13493,10.357341 1.20827,3.185192 2.19912,5.538222 4.15168,5.538222 1.29129,0 2.48589,-1.168627 2.48589,-2.528159 0,-2.481458 -3.55305,-5.521345 -3.55305,-13.814561 0,-8.553108 7.215,-12.715186 7.215,-24.275561 0,-1.968009 -0.81079,-5.827218 -2.01522,-9.108064 -1.13452,-3.090449 -2.29985,-5.667716 -4.10274,-5.667716 z"
         id="path12443"
         sodipodi:nodetypes="sssssssssss" /><path
         style="fill:#000000;stroke:none;stroke-width:0.169;stroke-linecap:round;stroke-miterlimit:5;stroke-dasharray:none;stroke-opacity:1"
         d="m 216.39834,30.391897 c -1.72579,0 -2.5886,1.383064 -2.5886,2.234723 0,3.035104 3.56705,5.967308 3.56705,13.478579 0,8.233629 -7.29494,14.654084 -7.29494,23.785196 0,3.147952 0.92562,7.169406 2.13493,10.357341 1.20827,3.185192 2.19912,5.538222 4.15168,5.538222 1.29129,0 2.48589,-1.168627 2.48589,-2.528159 0,-2.481458 -3.55305,-5.521345 -3.55305,-13.814561 0,-8.553108 7.215,-12.715186 7.215,-24.275561 0,-1.968009 -0.81079,-5.827218 -2.01522,-9.108064 -1.13452,-3.090449 -2.29985,-5.667716 -4.10274,-5.667716 z"
         id="path12441"
         sodipodi:nodetypes="sssssssssss" /><path
         id="path12384"
         style="fill:#000000;stroke:none;stroke-width:0.369;stroke-linecap:round;stroke-miterlimit:5;stroke-dasharray:none;stroke-opacity:1"
         d="m 186.58293,30.391943 c -1.72579,0 -2.58848,1.382831 -2.58848,2.234489 0,3.035101 3.56723,5.967501 3.56723,13.478764 0,8.233621 -7.29516,14.654009 -7.29516,23.785112 0,0.43035 0.0208,0.879264 0.0537,1.337902 l 6.65076,6.57531 c -0.78095,-2.023583 -1.48518,-4.669906 -1.48518,-8.360214 0,-8.553099 7.21506,-12.715157 7.21506,-24.27552 0,-1.968007 -0.81095,-5.827129 -2.01538,-9.107972 -1.13452,-3.090445 -2.29971,-5.667871 -4.10259,-5.667871 z"
         inkscape:label="path" /></g></g></svg>
