<?xml version="1.0" encoding="UTF-8" standalone="no"?>
<!-- Created with Inkscape (http://www.inkscape.org/) -->

<svg
   version="1.1"
   id="svg1"
   width="2240"
   height="1172.2667"
   viewBox="0 0 2240 1172.2667"
   sodipodi:docname="ascii-middle2.svg"
   inkscape:version="1.3.2 (091e20e, 2023-11-25)"
   xmlns:inkscape="http://www.inkscape.org/namespaces/inkscape"
   xmlns:sodipodi="http://sodipodi.sourceforge.net/DTD/sodipodi-0.dtd"
   xmlns="http://www.w3.org/2000/svg"
   xmlns:svg="http://www.w3.org/2000/svg">
  <defs
     id="defs1" />
  <sodipodi:namedview
     id="namedview1"
     pagecolor="#ffffff"
     bordercolor="#666666"
     borderopacity="1.0"
     inkscape:showpageshadow="2"
     inkscape:pageopacity="0.0"
     inkscape:pagecheckerboard="0"
     inkscape:deskcolor="#d1d1d1"
     inkscape:zoom="0.20131937"
     inkscape:cx="1117.6272"
     inkscape:cy="583.64975"
     inkscape:window-width="1512"
     inkscape:window-height="916"
     inkscape:window-x="0"
     inkscape:window-y="38"
     inkscape:window-maximized="0"
     inkscape:current-layer="g1" />
  <g
     inkscape:groupmode="layer"
     inkscape:label="Image"
     id="g1">
    <path
       style="fill:#020202;stroke:none"
       d="m 1612.8,77.252738 c -93.607,12.289324 -180.8375,40.492582 -258.1333,96.342322 -51.0352,36.87513 -93.7073,83.97286 -127.6716,136.80496 -114.4541,178.03523 -103.0503,416.44285 25.1481,584.53336 33.8832,44.42676 75.2392,83.14082 121.7235,114.13332 44.3255,29.5533 92.6911,53.1855 144,67.8107 65.5299,18.6789 136.4161,22.8741 203.7333,14.0223 73.8566,-9.7118 146.9134,-35.9799 209.0667,-77.2116 49.5674,-32.88245 92.8498,-73.27126 128.5596,-120.88806 110.4445,-147.27129 133.6339,-349.80659 56.7111,-517.33336 -34.1391,-74.34987 -87.4245,-140.74147 -151.1374,-191.78685 -49.1405,-39.37025 -107.2555,-68.24936 -167.4667,-86.314396 -46.6519,-13.99694 -94.3006,-20.56543 -142.9333,-20.56543 -13.6414,0 -28.0686,-1.323698 -41.6,0.452734 m 32,102.251832 c 35.2491,-4.15905 75.907,4.76744 109.8667,13.68554 166.1882,43.64252 289.9853,191.53126 301.7712,363.60992 5.1931,75.82057 -10.0624,156.26355 -47.9046,222.93334 -8.695,15.31869 -17.1345,30.57045 -27.6099,44.8 -2.4027,3.26381 -7.3298,12.57943 -11.9522,12.57943 -5.1146,0 -11.522,-9.26354 -14.8379,-12.57943 l -38.4,-38.4 c -50.6394,-50.63952 -99.8198,-103.52136 -152.3522,-152.18685 -93.9272,-87.01323 -182.7048,-180.7368 -273.2478,-271.27984 l -67.2,-67.2 c -4.9267,-4.92669 -22.1794,-17.18516 -22.1794,-24.43789 0,-4.42878 8.4082,-9.09675 11.5128,-11.42878 12.8175,-9.62793 26.6169,-17.78834 40.5333,-25.70039 43.5855,-24.78021 90.3279,-40.95332 139.7333,-49.27982 17.4153,-2.93503 34.844,-3.0595 52.2667,-5.11523 M 542.93333,209.51935 c -8.96334,1.17688 -22.25062,-1.34473 -26.50862,9.1638 -8.02175,19.79727 3.64869,39.16276 1.7942,58.6502 -4.58659,48.19655 -15.97067,95.67266 -30.38844,141.86667 -9.56374,30.64193 -19.82956,62.02455 -24.44033,93.86667 -3.85957,26.65443 -2.52575,53.21394 -3.6988,80.00001 -3.40381,77.72565 0.042,155.78828 0.042,233.60001 v 100.26667 c 0,10.20267 -3.67741,29.23359 3.35801,37.31686 10.43275,11.98659 31.0543,11.74981 45.70866,11.74981 39.68451,0 82.40579,4.372 121.6,-2.28893 21.18796,-3.60079 20.1849,-26.78933 20.26582,-43.57774 0.22305,-46.2556 1.06751,-92.46478 1.06751,-138.66667 0,-53.6336 -1.06666,-107.35685 -1.06666,-161.06668 0,-33.21966 2.67513,-68.37949 -1.37201,-101.33334 -7.72363,-62.88939 -29.99948,-125.68724 -46.61647,-186.66667 -6.2526,-22.94525 -12.31126,-49.71563 -9.41478,-73.60001 0.79863,-6.58541 4.38386,-12.54127 4.93574,-19.2 0.58223,-7.02461 -1.62187,-15.38183 -2.54648,-22.4 -0.58151,-4.4138 0.13952,-10.00065 -3.13412,-13.52839 -3.28014,-3.53476 -9.92311,-3.48111 -14.38522,-3.53417 -11.69681,-0.13907 -23.51946,-2.15176 -35.2,-0.6181 M 1654.4,211.86505 c -8.2508,1.20111 -11.4359,7.68848 -10.3465,15.33496 2.3387,16.41491 10.7809,31.07351 12.7844,48 4.1432,35.00313 -14.7792,61.95834 -25.1095,93.86667 -6.6685,20.5976 -7.2358,39.84382 -1.9968,60.80001 3.1822,12.72877 10.739,47.93288 28.9351,45.6222 9.4885,-1.20495 9.554,-9.35456 8.0543,-16.8222 -3.2259,-16.06315 -11.6105,-30.44206 -13.2065,-46.93334 -3.0135,-31.13652 14.0247,-57.31536 24.2954,-85.33333 8.1514,-22.23659 10.2242,-46.30411 4.1589,-69.33334 -3.0846,-11.71152 -10.5102,-47.68496 -27.5688,-45.20163 m 67.2049,1.10202 c -7.8496,2.40547 -7.5776,9.77832 -5.8946,16.36627 4.0775,15.96101 12.5765,30.08347 13.3144,46.93334 1.5995,36.52487 -18.4898,62.21263 -27.9622,96 -5.187,18.50124 -3.4361,39.03295 0.4956,57.60001 2.5086,11.84707 10.4567,50.6015 28.5752,45.16628 22.4771,-6.74271 -1.2274,-38.76661 -4.251,-52.63295 -8.1379,-37.32136 14.1952,-66.49772 25.2025,-100.26667 5.0284,-15.4263 5.176,-35.1625 3.2773,-51.2 -1.9008,-16.05593 -4.682,-32.98093 -13.3654,-46.93334 -3.9957,-6.42025 -10.9981,-13.60514 -19.3918,-11.03294 m -133.3382,227.56628 c -6.2943,-25.54635 -6.9754,-49.40976 1.4453,-74.66667 4.9008,-14.69941 12.8996,-28.17949 18.3678,-42.66666 10.2047,-27.03562 5.831,-61.21947 -4.6666,-87.46668 -3.5094,-8.77434 -16.4847,-34.55879 -29.0033,-18.75312 -4.1945,5.29596 -0.7807,14.21523 1.1408,19.81979 5.2431,15.29278 12.5218,30.42676 12.7118,46.93334 0.5464,47.48652 -57.8995,98.13972 -18.1555,140.8 5.3787,5.77331 10.2495,13.77976 18.1597,16 M 1340.8,329.60002 1912.5333,898.13338 v 1.06666 c -46.376,35.74454 -98.9479,64.1448 -155.7333,79.05678 -150.9667,39.64418 -316.1517,-15.70274 -414.4428,-136.65678 -92.3408,-113.63171 -118.9556,-278.34747 -60.5235,-413.86669 10.3888,-24.09433 22.8623,-47.16185 36.9071,-69.33333 6.1924,-9.77552 12.7822,-21.7002 22.0592,-28.8 m 332.8,195.20001 c 12.4732,17.70664 31.6132,32.67975 46.9333,48 29.3349,29.3349 58.1873,59.29421 88.5334,87.56211 11.5274,10.73802 22.3062,22.23959 34.1333,32.66667 4.2824,3.77552 9.2792,9.80508 14.9333,11.39427 8.2203,2.31042 22.818,-2.71699 30.9334,-4.8543 14.5812,-3.84036 30.6718,-9.04518 41.4148,-20.19837 19.8478,-20.60547 24.6836,-69.26068 9.6583,-93.76954 -7.4294,-12.11875 -20.6752,-15.6192 -34.0065,-17.12102 -21.7617,-2.45157 -44.5704,0.79921 -66.1333,-2.71029 -15.273,-2.48581 -8.2198,-21.14772 -23.4667,-26.00573 -44.2285,-14.09225 -96.9286,-14.9638 -142.9333,-14.9638 m -149.3333,7.20742 c -9.5597,-0.90345 -35.6631,5.1207 -40.1943,14.14238 -4.1007,8.16432 -1.3527,22.16947 -0.5202,30.91686 2.0923,21.98379 3.5457,44.10033 5.5943,66.13334 6.8499,73.67331 36.2505,141.3739 50.6411,213.33334 4.4529,22.26628 6.0494,44.74044 8.7078,67.20001 1.0887,9.19687 0.038,20.73633 5.6058,28.69961 9.2978,13.29818 41.5078,17.59036 56.5655,19.12018 35.9866,3.65599 76.4674,3.65951 112,-3.44609 11.5669,-2.31315 30.7725,-5.74362 37.4847,-16.65684 5.3291,-8.66432 4.5506,-24.21348 5.2766,-34.11686 1.4607,-19.92357 3.4389,-40.00827 6.7465,-59.73334 2.6728,-15.93958 6.7392,-31.39889 11.1424,-46.93333 1.5019,-5.29857 5.8413,-13.84707 3.3046,-19.2 -2.8942,-6.10697 -10.1697,-11.28152 -14.8882,-16.00001 l -32,-32 L 1632,635.73336 c -25.7814,-25.78131 -52.1069,-51.04017 -77.8667,-76.8 -6.7682,-6.76829 -20.0272,-25.99603 -29.8666,-26.92591 M 1878.4,592.30869 c 11.0236,-1.43255 26.1904,-0.74219 35.1836,6.50781 28.6789,23.11999 -0.5439,71.83106 -30.9169,75.13171 -35.3663,3.84316 -52.5043,-36.76172 -34.0181,-64.88151 6.7991,-10.34213 17.8165,-15.20704 29.7514,-16.75801 z"
       id="path1" />
  </g>
</svg>
